# Blender v2.91.0 OBJ File: ''
# www.blender.org
mtllib Gun.mtl
o Cube
v 0.854349 0.417000 -0.223385
v 0.854349 -0.232046 -0.223385
v 0.854349 0.417000 0.223385
v 0.854349 -0.232046 0.223385
v -0.937590 0.417000 -0.223385
v -0.937590 -0.232046 -0.223385
v -0.937590 0.417000 0.223385
v -0.937590 -0.232046 0.223385
v 0.422134 -0.232046 -0.223385
v 0.422134 0.417000 0.223385
v 0.422134 -0.232046 0.223385
v 0.422134 0.417000 -0.223385
v 0.204343 -0.232046 -0.223385
v 0.204343 0.417000 0.223385
v 0.204343 -0.232046 0.223385
v 0.204343 0.417000 -0.223385
v -0.937590 -0.232046 0.052938
v 0.854349 0.417000 0.052938
v -0.937590 0.417000 0.052938
v 0.854349 -0.232046 0.052938
v 0.422134 -0.232046 0.052938
v 0.478662 0.417000 0.092881
v 0.204343 -0.232046 0.052938
v 0.147815 0.417000 0.092881
v -0.937590 0.417000 -0.050386
v 0.854349 -0.232046 -0.050386
v -0.937590 -0.232046 -0.050386
v 0.854349 0.417000 -0.050386
v 0.422134 -0.232046 -0.050386
v 0.478662 0.417000 -0.090328
v 0.204343 -0.232046 -0.050386
v 0.147815 0.417000 -0.090328
v 0.422134 0.698159 0.004872
v 0.204343 0.698159 0.004872
v 0.422134 0.698159 -0.002320
v 0.204343 0.698159 -0.002320
vt 0.789869 0.613960
vt 0.848301 0.613960
vt 0.848301 0.726163
vt 0.789869 0.726163
vt 0.380849 0.894469
vt 0.614575 0.894469
vt 0.614575 0.950571
vt 0.380849 0.950571
vt 0.380849 0.221247
vt 0.614575 0.221247
vt 0.614575 0.277349
vt 0.380849 0.277349
vt 0.263986 0.613960
vt 0.380849 0.613960
vt 0.380849 0.726163
vt 0.263986 0.726163
vt 0.614575 0.613960
vt 0.614575 0.726163
vt 0.380849 0.389552
vt 0.614575 0.389552
vt 0.614575 0.501756
vt 0.380849 0.501756
vt 0.380849 0.333451
vt 0.614575 0.333451
vt 0.205554 0.613960
vt 0.205554 0.726163
vt 0.614575 0.838367
vt 0.380849 0.838367
vt 0.731438 0.613960
vt 0.731438 0.726163
vt 0.147123 0.613960
vt 0.147123 0.726163
vt 0.789869 0.557858
vt 0.789869 0.613960
vt 0.789869 0.557858
vt 0.147123 0.557858
vt 0.205554 0.557858
vt 0.614575 0.557858
vt 0.731438 0.557858
vt 0.263986 0.557858
vt 0.380849 0.557858
vt 0.380849 0.052941
vt 0.614575 0.052941
vt 0.614575 0.165145
vt 0.380849 0.165145
vt 0.848301 0.557858
vt 0.789869 0.501756
vt 0.848301 0.501756
vt 0.263986 0.501756
vt 0.205554 0.501756
vt 0.731438 0.501756
vt 0.147123 0.501756
vt 0.731438 0.557858
vt 0.731438 0.613960
vn 0.0000 1.0000 -0.0000
vn 0.0000 0.0000 1.0000
vn -1.0000 0.0000 0.0000
vn 0.0000 -1.0000 0.0000
vn 1.0000 0.0000 0.0000
vn 0.0000 0.0000 -1.0000
vn -0.9804 0.1971 0.0000
vn 0.9804 0.1971 0.0000
vn 0.0000 0.2987 0.9543
vn 0.0000 0.2987 -0.9543
usemtl Material
s off
f 24/1/1 19/2/1 7/3/1 14/4/1
f 15/5/2 14/6/2 7/7/2 8/8/2
f 27/9/3 25/10/3 5/11/3 6/12/3
f 21/13/4 20/14/4 4/15/4 11/16/4
f 20/14/5 18/17/5 3/18/5 4/15/5
f 9/19/6 12/20/6 1/21/6 2/22/6
f 13/23/6 16/24/6 12/20/6 9/19/6
f 23/25/4 21/13/4 11/16/4 15/26/4
f 4/15/2 3/18/2 10/27/2 11/28/2
f 18/17/1 22/29/1 10/30/1 3/18/1
f 17/31/4 23/25/4 15/26/4 8/32/4
f 6/12/6 5/11/6 16/24/6 13/23/6
f 11/28/2 10/27/2 14/6/2 15/5/2
f 22/29/1 24/1/1 14/4/1 10/30/1
f 32/33/7 24/1/7 34/34/7 36/35/7
f 27/36/4 31/37/4 23/25/4 17/31/4
f 28/38/1 30/39/1 22/29/1 18/17/1
f 31/37/4 29/40/4 21/13/4 23/25/4
f 26/41/5 28/38/5 18/17/5 20/14/5
f 29/40/4 26/41/4 20/14/4 21/13/4
f 8/42/3 7/43/3 19/44/3 17/45/3
f 32/33/1 25/46/1 19/2/1 24/1/1
f 16/47/1 5/48/1 25/46/1 32/33/1
f 9/49/4 2/22/4 26/41/4 29/40/4
f 2/22/5 1/21/5 28/38/5 26/41/5
f 13/50/4 9/49/4 29/40/4 31/37/4
f 1/21/1 12/51/1 30/39/1 28/38/1
f 6/52/4 13/50/4 31/37/4 27/36/4
f 12/51/1 16/47/1 32/33/1 30/39/1
f 17/45/3 19/44/3 25/10/3 27/9/3
f 35/53/1 36/35/1 34/34/1 33/54/1
f 22/29/8 30/39/8 35/53/8 33/54/8
f 24/1/9 22/29/9 33/54/9 34/34/9
f 30/39/10 32/33/10 36/35/10 35/53/10
